<mxfile host="Electron" modified="2024-10-25T05:48:58.728Z" agent="Mozilla/5.0 (Windows NT 10.0; Win64; x64) AppleWebKit/537.36 (KHTML, like Gecko) draw.io/22.0.0 Chrome/114.0.5735.289 Electron/25.8.3 Safari/537.36" etag="uMJ4JNzrRLcnVMryVDoj" version="22.0.0" type="device">
  <diagram name="Automation" id="t5MYdI0S9n1YzREQCLCV">
    <mxGraphModel dx="2469" dy="1451" grid="1" gridSize="100" guides="1" tooltips="1" connect="1" arrows="1" fold="1" page="1" pageScale="1" pageWidth="1100" pageHeight="850" background="#000000" math="0" shadow="0">
      <root>
        <mxCell id="0" />
        <mxCell id="1" parent="0" />
        <mxCell id="kr50pZpekgrdNaSUegvy-1" value="Have enough cells&lt;br&gt;been obtained&lt;br style=&quot;font-size: 30px;&quot;&gt;for this experiment?" style="strokeWidth=2;html=1;shape=mxgraph.flowchart.decision;whiteSpace=wrap;fontSize=30;aspect=fixed;fillColor=#008a00;fontColor=#ffffff;strokeColor=#005700;" vertex="1" parent="1">
          <mxGeometry x="650" y="650" width="400" height="266.66" as="geometry" />
        </mxCell>
        <mxCell id="kr50pZpekgrdNaSUegvy-2" value="Database" style="strokeWidth=2;html=1;shape=mxgraph.flowchart.database;whiteSpace=wrap;fontSize=30;" vertex="1" parent="1">
          <mxGeometry x="150" y="1244.32" width="200" height="200" as="geometry" />
        </mxCell>
        <mxCell id="kr50pZpekgrdNaSUegvy-3" value="Matrix of possible&lt;br style=&quot;font-size: 30px;&quot;&gt;experiments (&lt;i style=&quot;font-size: 30px;&quot;&gt;e.g.&lt;/i&gt;&amp;nbsp;times and&lt;br style=&quot;font-size: 30px;&quot;&gt;stimulant concentrations)" style="strokeWidth=2;html=1;shape=mxgraph.flowchart.start_1;whiteSpace=wrap;fontSize=30;" vertex="1" parent="1">
          <mxGeometry x="102.49" y="700" width="300" height="300" as="geometry" />
        </mxCell>
        <mxCell id="kr50pZpekgrdNaSUegvy-6" value="&lt;br style=&quot;font-size: 30px;&quot;&gt;&lt;br style=&quot;font-size: 30px;&quot;&gt;&lt;br style=&quot;font-size: 30px;&quot;&gt;&lt;br style=&quot;font-size: 30px;&quot;&gt;&lt;br style=&quot;font-size: 30px;&quot;&gt;&lt;span style=&quot;color: rgb(0, 0, 0); font-family: Helvetica; font-size: 30px; font-style: normal; font-variant-ligatures: normal; font-variant-caps: normal; font-weight: 400; letter-spacing: normal; orphans: 2; text-align: center; text-indent: 0px; text-transform: none; widows: 2; word-spacing: 0px; -webkit-text-stroke-width: 0px; text-decoration-thickness: initial; text-decoration-style: initial; text-decoration-color: initial; float: none; display: inline !important;&quot;&gt;Cell segmentation masks&lt;br style=&quot;font-size: 30px;&quot;&gt;(nucleus and cytoplasm)&lt;/span&gt;&lt;br style=&quot;border-color: var(--border-color); color: rgb(0, 0, 0); font-family: Helvetica; font-size: 30px; font-style: normal; font-variant-ligatures: normal; font-variant-caps: normal; font-weight: 400; letter-spacing: normal; orphans: 2; text-align: center; text-indent: 0px; text-transform: none; widows: 2; word-spacing: 0px; -webkit-text-stroke-width: 0px; text-decoration-thickness: initial; text-decoration-style: initial; text-decoration-color: initial;&quot;&gt;&lt;br style=&quot;border-color: var(--border-color); color: rgb(0, 0, 0); font-family: Helvetica; font-size: 30px; font-style: normal; font-variant-ligatures: normal; font-variant-caps: normal; font-weight: 400; letter-spacing: normal; orphans: 2; text-align: center; text-indent: 0px; text-transform: none; widows: 2; word-spacing: 0px; -webkit-text-stroke-width: 0px; text-decoration-thickness: initial; text-decoration-style: initial; text-decoration-color: initial;&quot;&gt;&lt;span style=&quot;color: rgb(0, 0, 0); font-family: Helvetica; font-size: 30px; font-style: normal; font-variant-ligatures: normal; font-variant-caps: normal; font-weight: 400; letter-spacing: normal; orphans: 2; text-align: center; text-indent: 0px; text-transform: none; widows: 2; word-spacing: 0px; -webkit-text-stroke-width: 0px; text-decoration-thickness: initial; text-decoration-style: initial; text-decoration-color: initial; float: none; display: inline !important;&quot;&gt;RNA spot counts&lt;/span&gt;" style="strokeWidth=2;html=1;shape=mxgraph.flowchart.extract_or_measurement;whiteSpace=wrap;aspect=fixed;fontSize=30;fillColor=#e3c800;fontColor=#000000;strokeColor=#B09500;labelBackgroundColor=none;" vertex="1" parent="1">
          <mxGeometry x="570" y="1157.64" width="560" height="373.36" as="geometry" />
        </mxCell>
        <mxCell id="kr50pZpekgrdNaSUegvy-8" value="Initial model of&lt;br style=&quot;font-size: 30px;&quot;&gt;&amp;nbsp;gene expression" style="strokeWidth=2;html=1;shape=mxgraph.flowchart.start_1;whiteSpace=wrap;fontSize=30;" vertex="1" parent="1">
          <mxGeometry x="94.5" y="127.5" width="304.99" height="304.99" as="geometry" />
        </mxCell>
        <mxCell id="kr50pZpekgrdNaSUegvy-9" value="" style="endArrow=classic;html=1;rounded=0;exitX=1;exitY=0.5;exitDx=0;exitDy=0;exitPerimeter=0;entryX=0;entryY=0.25;entryDx=0;entryDy=0;edgeStyle=orthogonalEdgeStyle;strokeWidth=8;strokeColor=#ffffff;" edge="1" parent="1" source="kr50pZpekgrdNaSUegvy-8" target="kr50pZpekgrdNaSUegvy-7">
          <mxGeometry width="50" height="50" relative="1" as="geometry">
            <mxPoint x="1100" y="750" as="sourcePoint" />
            <mxPoint x="1150" y="700" as="targetPoint" />
            <Array as="points">
              <mxPoint x="500" y="275" />
              <mxPoint x="500" y="218" />
            </Array>
          </mxGeometry>
        </mxCell>
        <mxCell id="kr50pZpekgrdNaSUegvy-10" value="" style="endArrow=classic;html=1;rounded=0;exitX=1;exitY=0.5;exitDx=0;exitDy=0;exitPerimeter=0;entryX=0.5;entryY=1;entryDx=0;entryDy=0;edgeStyle=orthogonalEdgeStyle;strokeWidth=8;strokeColor=#ffffff;" edge="1" parent="1" source="kr50pZpekgrdNaSUegvy-3" target="kr50pZpekgrdNaSUegvy-7">
          <mxGeometry width="50" height="50" relative="1" as="geometry">
            <mxPoint x="1100" y="750" as="sourcePoint" />
            <mxPoint x="1150" y="700" as="targetPoint" />
            <Array as="points">
              <mxPoint x="500" y="850" />
              <mxPoint x="500" y="600" />
              <mxPoint x="850" y="600" />
            </Array>
          </mxGeometry>
        </mxCell>
        <mxCell id="kr50pZpekgrdNaSUegvy-12" value="" style="endArrow=classic;html=1;rounded=0;exitX=0;exitY=0.5;exitDx=0;exitDy=0;entryX=0.78;entryY=0.5;entryDx=0;entryDy=0;entryPerimeter=0;strokeWidth=7;strokeColor=#ffffff;" edge="1" parent="1" source="kr50pZpekgrdNaSUegvy-4" target="kr50pZpekgrdNaSUegvy-6">
          <mxGeometry width="50" height="50" relative="1" as="geometry">
            <mxPoint x="2500" y="1475" as="sourcePoint" />
            <mxPoint x="2269.2" y="1650" as="targetPoint" />
          </mxGeometry>
        </mxCell>
        <mxCell id="kr50pZpekgrdNaSUegvy-13" value="" style="endArrow=classic;html=1;rounded=0;exitX=0.22;exitY=0.5;exitDx=0;exitDy=0;exitPerimeter=0;strokeWidth=7;strokeColor=#ffffff;entryX=1;entryY=0.5;entryDx=0;entryDy=0;entryPerimeter=0;" edge="1" parent="1" source="kr50pZpekgrdNaSUegvy-6" target="kr50pZpekgrdNaSUegvy-2">
          <mxGeometry width="50" height="50" relative="1" as="geometry">
            <mxPoint x="1300" y="1250" as="sourcePoint" />
            <mxPoint x="900" y="1500" as="targetPoint" />
          </mxGeometry>
        </mxCell>
        <mxCell id="kr50pZpekgrdNaSUegvy-14" value="" style="endArrow=classic;html=1;rounded=0;exitX=0.5;exitY=0;exitDx=0;exitDy=0;exitPerimeter=0;entryX=0.5;entryY=1;entryDx=0;entryDy=0;entryPerimeter=0;" edge="1" parent="1" source="kr50pZpekgrdNaSUegvy-6" target="kr50pZpekgrdNaSUegvy-1">
          <mxGeometry width="50" height="50" relative="1" as="geometry">
            <mxPoint x="1300" y="1250" as="sourcePoint" />
            <mxPoint x="1350" y="1200" as="targetPoint" />
          </mxGeometry>
        </mxCell>
        <mxCell id="kr50pZpekgrdNaSUegvy-19" value="Yes" style="endArrow=classic;html=1;rounded=0;strokeWidth=7;strokeColor=#FFFFFF;entryX=0;entryY=0.5;entryDx=0;entryDy=0;entryPerimeter=0;exitX=1;exitY=0.5;exitDx=0;exitDy=0;exitPerimeter=0;fontSize=30;labelPosition=right;verticalLabelPosition=bottom;align=left;verticalAlign=top;spacing=10;labelBackgroundColor=none;fontColor=#ffffff;" edge="1" parent="1" source="kr50pZpekgrdNaSUegvy-1" target="kr50pZpekgrdNaSUegvy-11">
          <mxGeometry width="50" height="50" relative="1" as="geometry">
            <mxPoint x="900" y="850" as="sourcePoint" />
            <mxPoint x="950" y="800" as="targetPoint" />
          </mxGeometry>
        </mxCell>
        <mxCell id="kr50pZpekgrdNaSUegvy-20" value="No" style="endArrow=classic;html=1;rounded=0;strokeWidth=7;strokeColor=#FFFFFF;entryX=0;entryY=0.5;entryDx=0;entryDy=0;entryPerimeter=0;exitX=1;exitY=0.5;exitDx=0;exitDy=0;exitPerimeter=0;fontSize=30;labelPosition=right;verticalLabelPosition=top;align=left;verticalAlign=bottom;spacing=10;labelBackgroundColor=none;fontColor=#ffffff;" edge="1" parent="1" source="kr50pZpekgrdNaSUegvy-1" target="kr50pZpekgrdNaSUegvy-18">
          <mxGeometry width="50" height="50" relative="1" as="geometry">
            <mxPoint x="1350" y="850" as="sourcePoint" />
            <mxPoint x="1450" y="650" as="targetPoint" />
          </mxGeometry>
        </mxCell>
        <mxCell id="kr50pZpekgrdNaSUegvy-21" value="" style="endArrow=classic;html=1;rounded=0;exitX=0.5;exitY=1;exitDx=0;exitDy=0;entryX=0.5;entryY=0;entryDx=0;entryDy=0;strokeWidth=7;strokeColor=#ffffff;exitPerimeter=0;" edge="1" parent="1" source="kr50pZpekgrdNaSUegvy-5" target="kr50pZpekgrdNaSUegvy-4">
          <mxGeometry width="50" height="50" relative="1" as="geometry">
            <mxPoint x="1750" y="1525" as="sourcePoint" />
            <mxPoint x="1302" y="1525" as="targetPoint" />
          </mxGeometry>
        </mxCell>
        <mxCell id="kr50pZpekgrdNaSUegvy-22" value="" style="endArrow=classic;html=1;rounded=0;exitX=0.78;exitY=0.5;exitDx=0;exitDy=0;entryX=0.5;entryY=0;entryDx=0;entryDy=0;strokeWidth=7;strokeColor=#ffffff;exitPerimeter=0;entryPerimeter=0;edgeStyle=orthogonalEdgeStyle;" edge="1" parent="1" source="kr50pZpekgrdNaSUegvy-16" target="kr50pZpekgrdNaSUegvy-5">
          <mxGeometry width="50" height="50" relative="1" as="geometry">
            <mxPoint x="1950" y="1050" as="sourcePoint" />
            <mxPoint x="1950" y="1400" as="targetPoint" />
          </mxGeometry>
        </mxCell>
        <mxCell id="kr50pZpekgrdNaSUegvy-23" value="" style="endArrow=classic;html=1;rounded=0;exitX=0.5;exitY=0;exitDx=0;exitDy=0;entryX=0;entryY=0.5;entryDx=0;entryDy=0;strokeWidth=7;strokeColor=#ffffff;exitPerimeter=0;entryPerimeter=0;edgeStyle=orthogonalEdgeStyle;" edge="1" parent="1" source="kr50pZpekgrdNaSUegvy-18" target="kr50pZpekgrdNaSUegvy-5">
          <mxGeometry width="50" height="50" relative="1" as="geometry">
            <mxPoint x="1950" y="495" as="sourcePoint" />
            <mxPoint x="1950" y="850" as="targetPoint" />
          </mxGeometry>
        </mxCell>
        <mxCell id="kr50pZpekgrdNaSUegvy-24" value="" style="endArrow=classic;html=1;rounded=0;entryX=0.5;entryY=1;entryDx=0;entryDy=0;entryPerimeter=0;strokeWidth=7;strokeColor=#ffffff;" edge="1" parent="1" source="kr50pZpekgrdNaSUegvy-6" target="kr50pZpekgrdNaSUegvy-1">
          <mxGeometry width="50" height="50" relative="1" as="geometry">
            <mxPoint x="1750" y="1458" as="sourcePoint" />
            <mxPoint x="1307" y="1458" as="targetPoint" />
          </mxGeometry>
        </mxCell>
        <mxCell id="kr50pZpekgrdNaSUegvy-25" value="ACQUIRE" style="swimlane;whiteSpace=wrap;html=1;strokeColor=#ffffff;strokeWidth=7;fontSize=30;autosize=1;resizeHeight=0;labelPadding=8;collapsible=0;startSize=40;" vertex="1" parent="1">
          <mxGeometry x="1650" y="600" width="400" height="400" as="geometry" />
        </mxCell>
        <mxCell id="kr50pZpekgrdNaSUegvy-5" value="Sequence&lt;br&gt;of images from&lt;br style=&quot;font-size: 30px;&quot;&gt;multi-dimensional acquisition" style="strokeWidth=7;html=1;shape=mxgraph.flowchart.sequential_data;whiteSpace=wrap;strokeColor=#ffffff;fontSize=30;" vertex="1" parent="kr50pZpekgrdNaSUegvy-25">
          <mxGeometry x="50" y="100" width="300" height="200" as="geometry" />
        </mxCell>
        <mxCell id="kr50pZpekgrdNaSUegvy-26" value="PROCESS" style="swimlane;whiteSpace=wrap;html=1;strokeColor=#B09500;strokeWidth=7;fontSize=30;autosize=1;resizeHeight=0;labelPadding=4;collapsible=0;startSize=40;fillColor=#e3c800;fontColor=#000000;" vertex="1" parent="1">
          <mxGeometry x="500" y="1100" width="1600" height="460" as="geometry" />
        </mxCell>
        <mxCell id="kr50pZpekgrdNaSUegvy-4" value="FISH Image Processing&lt;br style=&quot;font-size: 30px;&quot;&gt;Pipeline" style="verticalLabelPosition=middle;verticalAlign=middle;html=1;shape=process;whiteSpace=wrap;rounded=1;size=0.14;arcSize=6;labelPosition=center;align=center;fontSize=30;fillColor=#e3c800;fontColor=#000000;strokeColor=#B09500;" vertex="1" parent="kr50pZpekgrdNaSUegvy-26">
          <mxGeometry x="1150" y="119.31999999999994" width="400" height="250" as="geometry" />
        </mxCell>
        <mxCell id="kr50pZpekgrdNaSUegvy-28" value="DECIDE" style="swimlane;whiteSpace=wrap;html=1;strokeColor=#005700;strokeWidth=7;fontSize=30;autosize=1;resizeHeight=0;labelPadding=8;collapsible=0;startSize=40;fillColor=#008a00;fontColor=#ffffff;" vertex="1" parent="1">
          <mxGeometry x="550" y="100" width="1050" height="950" as="geometry" />
        </mxCell>
        <mxCell id="kr50pZpekgrdNaSUegvy-7" value="Stochastic System&lt;br style=&quot;font-size: 30px;&quot;&gt;Identification Toolkit" style="verticalLabelPosition=middle;verticalAlign=middle;html=1;shape=process;whiteSpace=wrap;rounded=1;size=0.14;arcSize=6;labelPosition=center;align=center;fontSize=30;fillColor=#008a00;fontColor=#ffffff;strokeColor=#005700;" vertex="1" parent="kr50pZpekgrdNaSUegvy-28">
          <mxGeometry x="100" y="54.98999999999999" width="400" height="250" as="geometry" />
        </mxCell>
        <mxCell id="kr50pZpekgrdNaSUegvy-16" value="&lt;span style=&quot;font-family: Helvetica; font-size: 30px; font-variant-ligatures: normal; font-variant-caps: normal; font-weight: 400; letter-spacing: normal; orphans: 2; text-align: center; text-indent: 0px; text-transform: none; widows: 2; word-spacing: 0px; -webkit-text-stroke-width: 0px; text-decoration-thickness: initial; text-decoration-style: initial; text-decoration-color: initial; float: none; display: inline !important;&quot;&gt;&lt;br&gt;&lt;br&gt;Optimal number&lt;br&gt;of cells&lt;br&gt;&lt;/span&gt;&lt;span style=&quot;font-family: Helvetica; font-size: 30px; font-variant-ligatures: normal; font-variant-caps: normal; font-weight: 400; letter-spacing: normal; orphans: 2; text-align: center; text-indent: 0px; text-transform: none; widows: 2; word-spacing: 0px; -webkit-text-stroke-width: 0px; text-decoration-thickness: initial; text-decoration-style: initial; text-decoration-color: initial; float: none; display: inline !important;&quot;&gt;&lt;i style=&quot;font-size: 30px;&quot;&gt;per&lt;br&gt;&lt;/i&gt;experiment&lt;br style=&quot;font-size: 30px;&quot;&gt;&lt;br style=&quot;font-size: 30px;&quot;&gt;&lt;br style=&quot;font-size: 30px;&quot;&gt;&lt;br style=&quot;font-size: 30px;&quot;&gt;&lt;br style=&quot;font-size: 30px;&quot;&gt;&lt;/span&gt;" style="strokeWidth=2;html=1;shape=mxgraph.flowchart.extract_or_measurement;whiteSpace=wrap;aspect=fixed;flipV=1;fontSize=30;fillColor=#008a00;fontColor=#ffffff;strokeColor=#005700;labelBackgroundColor=none;" vertex="1" parent="kr50pZpekgrdNaSUegvy-28">
          <mxGeometry x="620" y="59.97999999999999" width="360" height="240.02" as="geometry" />
        </mxCell>
        <mxCell id="kr50pZpekgrdNaSUegvy-17" value="" style="endArrow=classic;html=1;rounded=0;exitX=1;exitY=0.5;exitDx=0;exitDy=0;entryX=0.22;entryY=0.5;entryDx=0;entryDy=0;entryPerimeter=0;strokeWidth=7;strokeColor=#ffffff;" edge="1" parent="kr50pZpekgrdNaSUegvy-28" source="kr50pZpekgrdNaSUegvy-7" target="kr50pZpekgrdNaSUegvy-16">
          <mxGeometry width="50" height="50" relative="1" as="geometry">
            <mxPoint x="750" y="450" as="sourcePoint" />
            <mxPoint x="800" y="400" as="targetPoint" />
          </mxGeometry>
        </mxCell>
        <mxCell id="kr50pZpekgrdNaSUegvy-11" value="End this experiment;&lt;br style=&quot;font-size: 30px;&quot;&gt;Go to &lt;b&gt;next&lt;br&gt;&lt;/b&gt;experiment/well" style="strokeWidth=2;html=1;shape=mxgraph.flowchart.terminator;whiteSpace=wrap;fontSize=30;aspect=fixed;fillColor=#008a00;fontColor=#ffffff;strokeColor=#005700;" vertex="1" parent="kr50pZpekgrdNaSUegvy-28">
          <mxGeometry x="610" y="411.68" width="380" height="126.64" as="geometry" />
        </mxCell>
        <mxCell id="kr50pZpekgrdNaSUegvy-30" value="" style="endArrow=classic;html=1;rounded=0;exitX=0.5;exitY=0;exitDx=0;exitDy=0;entryX=0.5;entryY=0;entryDx=0;entryDy=0;strokeWidth=7;strokeColor=#ffffff;exitPerimeter=0;entryPerimeter=0;" edge="1" parent="kr50pZpekgrdNaSUegvy-28" source="kr50pZpekgrdNaSUegvy-11" target="kr50pZpekgrdNaSUegvy-16">
          <mxGeometry width="50" height="50" relative="1" as="geometry">
            <mxPoint x="1001" y="280" as="sourcePoint" />
            <mxPoint x="1400" y="700" as="targetPoint" />
          </mxGeometry>
        </mxCell>
        <mxCell id="kr50pZpekgrdNaSUegvy-18" value="Move to next FOV&lt;br&gt;in &lt;b&gt;this&lt;/b&gt; experiment;&lt;br style=&quot;font-size: 30px;&quot;&gt;continue imaging" style="strokeWidth=2;html=1;shape=mxgraph.flowchart.terminator;whiteSpace=wrap;fontSize=30;aspect=fixed;fillColor=#008a00;fontColor=#ffffff;strokeColor=#005700;" vertex="1" parent="kr50pZpekgrdNaSUegvy-28">
          <mxGeometry x="610" y="800" width="380" height="126.64" as="geometry" />
        </mxCell>
        <mxCell id="kr50pZpekgrdNaSUegvy-31" value="Optional; data can be used&lt;br&gt;to redesign and/or&lt;br&gt;refit models" style="endArrow=classic;html=1;rounded=0;exitX=0;exitY=0.5;exitDx=0;exitDy=0;exitPerimeter=0;strokeWidth=7;strokeColor=#ffffff;edgeStyle=orthogonalEdgeStyle;fontSize=30;labelPosition=right;verticalLabelPosition=bottom;align=left;verticalAlign=top;spacingBottom=20;spacingTop=220;entryX=0;entryY=0.5;entryDx=0;entryDy=0;entryPerimeter=0;" edge="1" parent="1" target="kr50pZpekgrdNaSUegvy-8">
          <mxGeometry width="50" height="50" relative="1" as="geometry">
            <mxPoint x="134" y="1344.3199999999997" as="sourcePoint" />
            <mxPoint x="78.5" y="279.9949999999999" as="targetPoint" />
            <Array as="points">
              <mxPoint x="21" y="1344" />
              <mxPoint x="21" y="275" />
              <mxPoint x="78" y="275" />
              <mxPoint x="78" y="280" />
            </Array>
          </mxGeometry>
        </mxCell>
        <mxCell id="kr50pZpekgrdNaSUegvy-33" value="" style="endArrow=classic;html=1;rounded=0;exitX=0;exitY=0.5;exitDx=0;exitDy=0;exitPerimeter=0;strokeWidth=7;strokeColor=#ffffff;entryX=0;entryY=0.75;entryDx=0;entryDy=0;edgeStyle=orthogonalEdgeStyle;fontSize=30;labelPosition=right;verticalLabelPosition=bottom;align=left;verticalAlign=top;spacingBottom=20;spacingTop=220;" edge="1" parent="1" target="kr50pZpekgrdNaSUegvy-7">
          <mxGeometry width="50" height="50" relative="1" as="geometry">
            <mxPoint x="72" y="1344.3199999999997" as="sourcePoint" />
            <mxPoint x="634" y="342.49" as="targetPoint" />
            <Array as="points">
              <mxPoint x="22" y="1344" />
              <mxPoint x="22" y="600" />
              <mxPoint x="384" y="600" />
              <mxPoint x="384" y="500" />
              <mxPoint x="500" y="500" />
              <mxPoint x="500" y="342" />
            </Array>
          </mxGeometry>
        </mxCell>
      </root>
    </mxGraphModel>
  </diagram>
</mxfile>
